<svg width="17" height="16" viewBox="0 0 17 16" fill="none" xmlns="http://www.w3.org/2000/svg">
<mask id="mask0_3182_91691" style="mask-type:alpha" maskUnits="userSpaceOnUse" x="0" y="0" width="17" height="17">
<path fill-rule="evenodd" clip-rule="evenodd" d="M12.5798 3.92181C11.7085 3.05054 10.2959 3.05054 9.42463 3.92181L7.49897 5.84746L6.65045 4.99893L8.57611 3.07328C9.91602 1.73339 12.0884 1.73338 13.4283 3.07328C14.7682 4.41318 14.7682 6.58559 13.4283 7.92549L11.5026 9.85115L10.6541 9.00263L12.5798 7.07696C13.451 6.2057 13.451 4.79308 12.5798 3.92181ZM11.0151 6.33503L6.83324 10.5169L5.98472 9.66836L10.1666 5.4865L11.0151 6.33503ZM5.68177 7.67023L4.42004 8.92642C3.54911 9.79773 3.54888 11.2104 4.42004 12.0816C5.29115 12.9527 6.70341 12.9528 7.57471 12.082L8.83137 10.8198L9.68176 11.6665L8.42463 12.9292L8.42371 12.9301C7.08381 14.27 4.9114 14.27 3.57151 12.9301C2.23161 11.5902 2.23162 9.41781 3.57151 8.0779L4.83512 6.81983L5.68177 7.67023Z" fill="black"/>
</mask>
<g mask="url(#mask0_3182_91691)">
<rect x="0.5" y="0.00195312" width="15.9999" height="16" fill="white"/>
</g>
</svg>
