<svg width="263" height="50" viewBox="0 0 263 50" fill="none" xmlns="http://www.w3.org/2000/svg">
<g clip-path="url(#clip0_2_995)">
<path d="M166.531 26.7251H166.073C165.833 26.7251 165.63 26.8625 165.533 27.0712C165.508 27.1374 165.498 27.2188 165.498 27.2951V37.2809C165.498 37.5913 165.747 37.8407 166.073 37.8407H166.531C166.765 37.8407 166.968 37.7084 167.06 37.5048C167.091 37.4336 167.111 37.3521 167.111 37.286V27.3002C167.111 26.9847 166.856 26.7302 166.531 26.7302V26.7251Z" fill="#B0B8C1"/>
<path d="M202.576 26.7251H202.107C201.883 26.7251 201.68 26.8625 201.588 27.0712C201.558 27.1424 201.542 27.2188 201.542 27.2951V37.2809C201.542 37.5913 201.792 37.8407 202.107 37.8407H202.576C202.805 37.8407 203.008 37.7084 203.105 37.5048C203.136 37.4336 203.146 37.3623 203.146 37.286V27.3002C203.146 26.9847 202.891 26.7302 202.576 26.7302V26.7251Z" fill="#B0B8C1"/>
<path d="M124.089 29.1479H122.216C120.745 29.1479 119.549 30.2982 119.549 31.7131V35.2809C119.549 36.6958 120.745 37.8511 122.216 37.8511H124.089C124.741 37.8511 125.362 37.6272 125.835 37.2251C126.196 36.9299 126.466 36.5584 126.624 36.1512C126.685 35.9782 126.665 35.7898 126.563 35.6422C126.456 35.4845 126.283 35.398 126.084 35.398H125.58C125.341 35.398 125.133 35.5252 125.077 35.7033C124.888 36.0545 124.507 36.2886 124.089 36.2886H122.216C121.636 36.2886 121.153 35.8357 121.153 35.2809V34.2833H125.962C126.415 34.2833 126.777 33.9372 126.777 33.4944V31.7131C126.777 30.2982 125.57 29.1479 124.089 29.1479ZM121.153 31.7131C121.153 31.1634 121.636 30.7155 122.216 30.7155H124.089C124.69 30.7155 125.168 31.1583 125.168 31.7131V32.7259H121.153V31.7131Z" fill="#B0B8C1"/>
<path d="M131.362 30.7153H133.235C133.647 30.7153 134.034 30.9291 134.197 31.2396C134.273 31.4635 134.487 31.6111 134.731 31.6111H135.225C135.418 31.6111 135.602 31.5144 135.703 31.3566C135.805 31.209 135.826 31.0156 135.764 30.8629C135.607 30.4405 135.337 30.0639 134.981 29.7738C134.512 29.3768 133.886 29.1528 133.235 29.1528H131.362C129.891 29.1528 128.69 30.3031 128.69 31.718V35.2858C128.69 36.7007 129.891 37.856 131.362 37.856H133.235C133.886 37.856 134.497 37.6321 134.981 37.23C135.342 36.9348 135.607 36.5633 135.764 36.1561C135.831 35.983 135.81 35.7947 135.708 35.6471C135.602 35.4894 135.423 35.4028 135.23 35.4028H134.721C134.487 35.4028 134.273 35.5352 134.222 35.7082C134.034 36.0594 133.642 36.2935 133.24 36.2935H131.367C130.782 36.2935 130.308 35.8405 130.308 35.2858V31.718C130.308 31.1683 130.782 30.7204 131.367 30.7204L131.362 30.7153Z" fill="#B0B8C1"/>
<path d="M142.126 29.1477H139.184V27.2951C139.184 26.9796 138.93 26.7251 138.609 26.7251H138.151C137.922 26.7251 137.714 26.8625 137.622 27.0712C137.591 27.1424 137.576 27.2188 137.576 27.29V37.2758C137.576 37.5863 137.831 37.8356 138.151 37.8356H138.609C138.843 37.8356 139.047 37.7033 139.139 37.4997C139.169 37.4285 139.184 37.3572 139.184 37.2809V30.7204H142.126C142.722 30.7204 143.2 31.1632 143.2 31.718V37.3012C143.2 37.6168 143.45 37.8611 143.77 37.8611H144.233C144.554 37.8611 144.808 37.6168 144.808 37.3012V31.718C144.808 30.3031 143.607 29.1528 142.126 29.1528V29.1477Z" fill="#B0B8C1"/>
<path d="M151.451 29.1377H147.476C147.155 29.1377 146.906 29.3769 146.906 29.6975V37.2759C146.906 37.5864 147.155 37.8358 147.476 37.8358H147.939C148.265 37.8358 148.509 37.5915 148.509 37.2759V30.6951H151.451C152.056 30.6951 152.53 31.1379 152.53 31.7079V37.2759C152.53 37.5864 152.779 37.8358 153.095 37.8358H153.558C153.873 37.8358 154.128 37.5915 154.128 37.2759V31.7079C154.128 30.2879 152.927 29.1377 151.446 29.1377H151.451Z" fill="#B0B8C1"/>
<path d="M160.637 29.1479H158.759C157.293 29.1479 156.092 30.2982 156.092 31.7131V35.2809C156.092 36.6907 157.293 37.8359 158.759 37.8359H160.637C162.113 37.8359 163.319 36.6907 163.319 35.2809V31.7131C163.319 30.2982 162.113 29.1479 160.637 29.1479ZM157.701 31.7131C157.701 31.1634 158.174 30.7155 158.759 30.7155H160.637C161.228 30.7155 161.711 31.1583 161.711 31.7131V35.2809C161.711 35.8255 161.223 36.2734 160.637 36.2734H158.759C158.174 36.2734 157.701 35.8255 157.701 35.2809V31.7131Z" fill="#B0B8C1"/>
<path d="M173.804 29.1479H171.926C170.46 29.1479 169.259 30.2982 169.259 31.7131V35.2809C169.259 36.6907 170.46 37.8359 171.926 37.8359H173.804C175.28 37.8359 176.481 36.6907 176.481 35.2809V31.7131C176.481 30.2982 175.28 29.1479 173.804 29.1479ZM170.872 31.7131C170.872 31.1634 171.34 30.7155 171.926 30.7155H173.804C174.394 30.7155 174.878 31.1583 174.878 31.7131V35.2809C174.878 35.8255 174.394 36.2734 173.804 36.2734H171.926C171.346 36.2734 170.872 35.8255 170.872 35.2809V31.7131Z" fill="#B0B8C1"/>
<path d="M194.386 29.1477H194.061C193.73 29.1477 193.435 29.3462 193.302 29.6464L191.027 35.5605L188.742 29.6312C188.62 29.3411 188.32 29.1426 187.994 29.1426H187.668C187.48 29.1426 187.302 29.2342 187.195 29.3971C187.088 29.5447 187.067 29.7279 187.134 29.906L190.167 37.7796L189.51 39.4846C189.444 39.6627 189.47 39.8561 189.577 40.0088C189.678 40.1615 189.851 40.2531 190.04 40.2531H190.376C190.707 40.2531 191.002 40.0546 191.139 39.7442L194.931 29.9009C194.997 29.7279 194.977 29.5447 194.865 29.392C194.768 29.2393 194.59 29.1426 194.391 29.1426L194.386 29.1477Z" fill="#B0B8C1"/>
<path d="M210.027 29.1377H206.067C205.746 29.1377 205.492 29.3769 205.492 29.6975V37.2759C205.492 37.5864 205.746 37.8358 206.067 37.8358H206.525C206.846 37.8358 207.09 37.5915 207.09 37.2759V30.6951H210.027C210.632 30.6951 211.106 31.1379 211.106 31.7079V37.2759C211.106 37.5864 211.355 37.8358 211.676 37.8358H212.144C212.459 37.8358 212.714 37.5915 212.714 37.2759V31.7079C212.714 30.2879 211.508 29.1377 210.027 29.1377Z" fill="#B0B8C1"/>
<path d="M246.834 29.1379H246.371C246.051 29.1379 245.796 29.3771 245.796 29.6978V36.2684H242.87C242.264 36.2684 241.786 35.8256 241.786 35.2607V29.6978C241.786 29.3822 241.541 29.1379 241.221 29.1379H240.763C240.442 29.1379 240.188 29.3771 240.188 29.6978V35.2607C240.188 36.6807 241.394 37.8309 242.87 37.8309H246.84C247.155 37.8309 247.415 37.5866 247.415 37.271V29.6927C247.415 29.3771 247.155 29.1328 246.84 29.1328L246.834 29.1379Z" fill="#B0B8C1"/>
<path d="M261.808 34.278C262.261 34.278 262.622 33.9319 262.622 33.4891V31.7077C262.622 30.2928 261.416 29.1426 259.935 29.1426H258.067C256.601 29.1426 255.395 30.2928 255.395 31.7077V35.2755C255.395 36.6904 256.601 37.8458 258.067 37.8458H259.935C260.591 37.8458 261.207 37.6218 261.681 37.2197C262.042 36.9245 262.307 36.5581 262.47 36.1458C262.531 35.9728 262.51 35.7845 262.408 35.6369C262.302 35.4791 262.123 35.3926 261.93 35.3926H261.426C261.187 35.3926 260.973 35.5198 260.922 35.698C260.734 36.0491 260.347 36.2833 259.935 36.2833H258.067C257.482 36.2833 257.003 35.8303 257.003 35.2755V34.278H261.808ZM258.067 30.7102H259.935C260.53 30.7102 261.014 31.153 261.014 31.7077V32.7206H256.998V31.7077C256.998 31.1581 257.477 30.7102 258.062 30.7102H258.067Z" fill="#B0B8C1"/>
<path d="M227.642 36.3092C227.575 36.2837 227.504 36.2634 227.428 36.2634H226.043C225.458 36.2634 224.98 35.8206 224.98 35.276V30.7157H227.29C227.596 30.7157 227.835 30.4714 227.835 30.1508V29.7029C227.835 29.479 227.708 29.2754 227.504 29.1889C227.438 29.1583 227.362 29.1482 227.285 29.1482H224.98V28.1404C224.98 27.8401 224.72 27.5806 224.41 27.5806H223.946C223.636 27.5806 223.376 27.8401 223.376 28.1404V35.2811C223.376 36.6909 224.578 37.8412 226.048 37.8412H227.443C227.748 37.8412 227.988 37.5969 227.988 37.2813V36.8385C227.988 36.6044 227.86 36.4059 227.652 36.3194L227.642 36.3092Z" fill="#B0B8C1"/>
<path d="M238.182 36.3092C238.116 36.2837 238.039 36.2634 237.963 36.2634H236.569C235.983 36.2634 235.51 35.8206 235.51 35.276V30.7157H237.815C238.126 30.7157 238.36 30.4714 238.36 30.1508V29.7029C238.36 29.479 238.233 29.2754 238.029 29.1889C237.963 29.1583 237.887 29.1482 237.81 29.1482H235.505V28.1404C235.505 27.8401 235.24 27.5806 234.93 27.5806H234.467C234.156 27.5806 233.896 27.8401 233.896 28.1404V35.2811C233.896 36.6909 235.093 37.8412 236.563 37.8412H237.963C238.263 37.8412 238.503 37.5969 238.503 37.2813V36.8385C238.503 36.6044 238.375 36.4059 238.177 36.3194L238.182 36.3092Z" fill="#B0B8C1"/>
<path d="M253.716 36.3092C253.644 36.2837 253.573 36.2634 253.497 36.2634H252.107C251.517 36.2634 251.044 35.8206 251.044 35.276V30.7157H253.359C253.66 30.7157 253.899 30.4714 253.899 30.1508V29.7029C253.899 29.479 253.772 29.2754 253.568 29.1889C253.497 29.1583 253.426 29.1482 253.349 29.1482H251.044V28.1404C251.044 27.8401 250.784 27.5806 250.474 27.5806H250.01C249.7 27.5806 249.44 27.8401 249.44 28.1404V35.2811C249.44 36.6909 250.636 37.8412 252.112 37.8412H253.502C253.812 37.8412 254.057 37.5969 254.057 37.2813V36.8385C254.057 36.6044 253.924 36.4059 253.721 36.3194L253.716 36.3092Z" fill="#B0B8C1"/>
<path d="M231.041 26.7251H230.583C230.354 26.7251 230.141 26.8625 230.054 27.0712C230.029 27.1424 230.008 27.2188 230.008 27.2951V28.6948C230.008 29.0052 230.258 29.2546 230.578 29.2546H231.041C231.276 29.2546 231.484 29.1223 231.566 28.9187C231.601 28.8525 231.617 28.7762 231.617 28.6948V27.2951C231.617 26.9796 231.362 26.7251 231.041 26.7251Z" fill="#B0B8C1"/>
<path d="M231.041 30.2676H230.583C230.354 30.2676 230.141 30.3999 230.054 30.6086C230.029 30.6747 230.008 30.7511 230.008 30.8274V37.2759C230.008 37.5864 230.258 37.8358 230.578 37.8358H231.041C231.276 37.8358 231.484 37.7034 231.566 37.4999C231.601 37.4286 231.617 37.3523 231.617 37.2759V30.8274C231.617 30.5119 231.362 30.2676 231.041 30.2676Z" fill="#B0B8C1"/>
<path d="M118.984 26.776C118.913 26.7455 118.842 26.7251 118.75 26.7251H111.329C111.258 26.7251 111.182 26.7455 111.116 26.776C110.917 26.8625 110.78 27.061 110.78 27.2951V27.743C110.78 28.0535 111.029 28.3029 111.329 28.3029H114.246V37.2809C114.246 37.5913 114.5 37.8407 114.801 37.8407H115.279C115.589 37.8407 115.854 37.5863 115.854 37.2809V28.3029H118.77C119.086 28.3029 119.32 28.0535 119.32 27.743V27.2951C119.32 27.0661 119.193 26.8625 118.984 26.776Z" fill="#B0B8C1"/>
<path d="M185.006 29.1479H181.021C179.555 29.1479 178.359 30.2982 178.359 31.7131V34.7414C178.359 36.1563 179.555 37.3116 181.021 37.3116H183.978V37.6832C183.978 38.2328 183.494 38.6807 182.909 38.6909H179.952C179.865 38.6909 179.794 38.7011 179.733 38.7265C179.529 38.8131 179.402 39.0217 179.402 39.2457V39.6986C179.402 40.0142 179.641 40.2585 179.952 40.2585H182.899C184.38 40.2585 185.586 39.1032 185.586 37.6883V29.7129C185.586 29.4024 185.327 29.1479 185.006 29.1479ZM179.962 31.7131C179.962 31.1634 180.441 30.7155 181.021 30.7155H183.978V35.7491H181.021C180.441 35.7491 179.962 35.2962 179.962 34.7414V31.7131Z" fill="#B0B8C1"/>
<path d="M218.954 32.7208H217.152C216.887 32.7208 216.618 32.614 216.404 32.4307C216.195 32.2526 216.068 32.0134 216.058 31.764C216.043 31.4892 216.149 31.2245 216.353 31.026C216.546 30.8275 216.826 30.7104 217.122 30.7104H220.358C220.659 30.7104 220.908 30.4712 220.908 30.1557V29.7027C220.908 29.4788 220.771 29.2803 220.572 29.1938C220.506 29.1683 220.43 29.1479 220.364 29.1479H217.183C216.46 29.1479 215.742 29.433 215.223 29.9317C214.709 30.4407 214.439 31.0769 214.449 31.764C214.475 32.446 214.765 33.0822 215.259 33.5453C215.778 34.0238 216.44 34.2833 217.127 34.2833H218.989C219.259 34.2833 219.529 34.3851 219.732 34.5582C219.946 34.7414 220.073 34.9704 220.079 35.2249C220.089 35.5048 219.987 35.7644 219.788 35.968C219.585 36.1665 219.31 36.2784 219 36.2784H215.355C215.05 36.2784 214.806 36.5227 214.806 36.8332V37.2811C214.806 37.5101 214.938 37.7137 215.142 37.7951C215.208 37.8257 215.279 37.8409 215.355 37.8409H219C219.702 37.8409 220.369 37.5865 220.883 37.1131C221.376 36.6347 221.672 36.0036 221.682 35.342C221.697 34.6549 221.432 34.0187 220.913 33.4995C220.394 33.0109 219.682 32.731 218.954 32.731V32.7208Z" fill="#B0B8C1"/>
<path d="M126.242 14.4795H124.369C122.893 14.4795 121.697 15.6297 121.697 17.0395V20.6073C121.697 22.0222 122.898 23.1674 124.369 23.1674H126.242C127.718 23.1674 128.924 22.0222 128.924 20.6073V17.0395C128.924 15.6297 127.718 14.4795 126.242 14.4795ZM123.3 17.0395C123.3 16.495 123.784 16.042 124.369 16.042H126.242C126.832 16.042 127.321 16.4899 127.321 17.0395V20.6073C127.321 21.157 126.832 21.6049 126.242 21.6049H124.369C123.784 21.6049 123.3 21.157 123.3 20.6073V17.0395Z" fill="#B0B8C1"/>
<path d="M141.577 14.4795H139.704C138.233 14.4795 137.037 15.6297 137.037 17.0395V20.6073C137.037 22.0273 138.228 23.1827 139.704 23.1827H141.577C142.233 23.1827 142.849 22.9587 143.322 22.5567C143.684 22.2665 143.958 21.8899 144.111 21.4827C144.172 21.3097 144.152 21.1214 144.055 20.9738C143.948 20.8211 143.77 20.7295 143.572 20.7295H143.073C142.834 20.7295 142.625 20.8618 142.564 21.0349C142.376 21.3911 141.989 21.6202 141.582 21.6202H139.709C139.123 21.6202 138.65 21.1672 138.65 20.6073V19.6149H143.46C143.913 19.6149 144.269 19.2688 144.269 18.826V17.0446C144.269 15.6348 143.068 14.4846 141.582 14.4846L141.577 14.4795ZM138.645 17.0395C138.645 16.495 139.113 16.042 139.704 16.042H141.577C142.172 16.042 142.661 16.4899 142.661 17.0395V18.0473H138.645V17.0395Z" fill="#B0B8C1"/>
<path d="M171.295 12.0571H170.831C170.597 12.0571 170.394 12.1895 170.302 12.3981C170.272 12.4694 170.256 12.5457 170.256 12.6221V22.6027C170.256 22.9183 170.511 23.1626 170.831 23.1626H171.295C171.519 23.1626 171.727 23.0353 171.819 22.8267C171.849 22.7554 171.86 22.6842 171.86 22.6027V12.617C171.86 12.3014 171.615 12.0571 171.295 12.0571Z" fill="#B0B8C1"/>
<path d="M178.629 14.4795H176.751C175.27 14.4795 174.079 15.6297 174.079 17.0395V20.6073C174.079 22.0273 175.27 23.1827 176.751 23.1827H178.629C179.276 23.1827 179.896 22.9587 180.37 22.5567C180.726 22.2665 180.996 21.895 181.154 21.4827C181.22 21.3097 181.199 21.1265 181.093 20.9738C180.986 20.8211 180.808 20.7295 180.614 20.7295H180.11C179.871 20.7295 179.662 20.8618 179.601 21.0349C179.418 21.3911 179.031 21.6202 178.624 21.6202H176.746C176.161 21.6202 175.682 21.1672 175.682 20.6073V19.6149H180.492C180.945 19.6149 181.301 19.2688 181.301 18.826V17.0446C181.301 15.6348 180.095 14.4846 178.619 14.4846L178.629 14.4795ZM175.687 17.0395C175.687 16.495 176.166 16.042 176.751 16.042H178.629C179.22 16.042 179.703 16.4899 179.703 17.0395V18.0473H175.693V17.0395H175.687Z" fill="#B0B8C1"/>
<path d="M185.851 16.042H187.719C188.136 16.042 188.513 16.2558 188.681 16.5713C188.757 16.7902 188.976 16.9378 189.226 16.9378H189.714C189.908 16.9378 190.086 16.8411 190.193 16.6782C190.294 16.5306 190.315 16.3372 190.254 16.1896C190.106 15.7672 189.831 15.3905 189.475 15.1004C189.002 14.6983 188.386 14.4795 187.724 14.4795H185.856C184.38 14.4795 183.179 15.6297 183.179 17.0395V20.6073C183.179 22.0273 184.38 23.1827 185.856 23.1827H187.724C188.376 23.1827 188.997 22.9587 189.47 22.5567C189.826 22.2665 190.101 21.895 190.254 21.4827C190.315 21.3046 190.294 21.1214 190.193 20.9738C190.091 20.8211 189.908 20.7295 189.719 20.7295H189.215C188.976 20.7295 188.762 20.8618 188.706 21.0349C188.523 21.3911 188.142 21.6202 187.724 21.6202H185.856C185.266 21.6202 184.793 21.1672 184.793 20.6073V17.0395C184.793 16.495 185.266 16.042 185.856 16.042H185.851Z" fill="#B0B8C1"/>
<path d="M209.008 14.4795H207.135C205.665 14.4795 204.463 15.6297 204.463 17.0395V20.6073C204.463 22.0222 205.665 23.1674 207.135 23.1674H209.008C210.495 23.1674 211.691 22.0222 211.691 20.6073V17.0395C211.691 15.6297 210.489 14.4795 209.008 14.4795ZM206.077 17.0395C206.077 16.495 206.55 16.042 207.135 16.042H209.008C209.604 16.042 210.087 16.4899 210.087 17.0395V20.6073C210.087 21.157 209.604 21.6049 209.008 21.6049H207.135C206.55 21.6049 206.077 21.157 206.077 20.6073V17.0395Z" fill="#B0B8C1"/>
<path d="M218.089 14.4644H214.124C213.803 14.4644 213.554 14.7137 213.554 15.0242V22.5975C213.554 22.9131 213.803 23.1574 214.124 23.1574H214.587C214.908 23.1574 215.157 22.9131 215.157 22.5975V16.0269H218.089C218.694 16.0269 219.168 16.4646 219.168 17.0346V22.5975C219.168 22.9131 219.422 23.1574 219.743 23.1574H220.206C220.521 23.1574 220.771 22.9131 220.771 22.5975V17.0346C220.771 15.6146 219.57 14.4644 218.089 14.4644Z" fill="#B0B8C1"/>
<path d="M229.316 16.0422H231.189C231.606 16.0422 231.983 16.256 232.156 16.5664C232.232 16.7853 232.446 16.9329 232.69 16.9329H233.179C233.378 16.9329 233.556 16.8362 233.663 16.6784C233.764 16.5308 233.785 16.3374 233.724 16.1847C233.571 15.7623 233.301 15.3856 232.935 15.0955C232.477 14.6935 231.851 14.4746 231.189 14.4746H229.316C227.845 14.4746 226.644 15.6249 226.644 17.0347V20.6025C226.644 22.0225 227.845 23.1778 229.316 23.1778H231.189C231.835 23.1778 232.461 22.9538 232.935 22.5518C233.296 22.2617 233.561 21.8901 233.724 21.4728C233.785 21.2997 233.764 21.1165 233.663 20.9689C233.556 20.8162 233.378 20.7246 233.179 20.7246H232.675C232.436 20.7246 232.227 20.8569 232.166 21.03C231.983 21.3863 231.601 21.6153 231.184 21.6153H229.311C228.726 21.6153 228.252 21.1623 228.252 20.6025V17.0347C228.252 16.4901 228.731 16.0371 229.311 16.0371L229.316 16.0422Z" fill="#B0B8C1"/>
<path d="M116.897 17.391L120.18 12.9529C120.312 12.7798 120.333 12.5661 120.241 12.3727C120.144 12.1793 119.951 12.0571 119.722 12.0571H119.274C119.025 12.0571 118.775 12.1793 118.623 12.3778L115.574 16.5054C115.488 16.6276 115.33 16.6988 115.162 16.6988H114.006V12.617C114.006 12.3014 113.752 12.0571 113.431 12.0571H112.978C112.739 12.0571 112.53 12.1895 112.444 12.3981C112.413 12.4694 112.393 12.5457 112.393 12.6221V22.6027C112.393 22.9183 112.653 23.1626 112.978 23.1626H113.431C113.665 23.1626 113.874 23.0353 113.961 22.8267C113.996 22.7554 114.006 22.6842 114.006 22.6027V18.2664H115.294C115.462 18.2664 115.625 18.3428 115.717 18.47L118.974 22.8521C119.132 23.0506 119.361 23.1626 119.61 23.1626H120.068C120.282 23.1626 120.475 23.0557 120.567 22.8725C120.664 22.6842 120.653 22.4653 120.526 22.277L116.902 17.391H116.897Z" fill="#B0B8C1"/>
<path d="M135.47 14.5204C135.398 14.495 135.327 14.4746 135.235 14.4746H133.622C132.146 14.4746 130.955 15.6249 130.955 17.0347V22.6078C130.955 22.9131 131.21 23.1523 131.525 23.1523H131.978C132.299 23.1523 132.553 22.908 132.553 22.6078V17.0347C132.553 16.5104 132.991 16.0778 133.535 16.0422H135.246C135.556 16.0422 135.8 15.7979 135.8 15.4823V15.0345C135.8 14.8054 135.663 14.6018 135.459 14.5153L135.47 14.5204Z" fill="#B0B8C1"/>
<path d="M202.972 14.5204C202.896 14.495 202.83 14.4746 202.733 14.4746H201.12C199.654 14.4746 198.453 15.6249 198.453 17.0347V22.6078C198.453 22.9131 198.712 23.1523 199.033 23.1523H199.486C199.801 23.1523 200.061 22.908 200.061 22.6078V17.0347C200.061 16.5104 200.504 16.0778 201.048 16.0422H202.753C203.064 16.0422 203.308 15.7979 203.308 15.4823V15.0345C203.308 14.8054 203.176 14.6018 202.972 14.5153V14.5204Z" fill="#B0B8C1"/>
<path d="M150.351 14.4795H147.303C147.232 14.4795 147.16 14.4948 147.089 14.5202C146.885 14.6067 146.758 14.8103 146.758 15.0393V15.4872C146.758 15.8028 146.992 16.0471 147.303 16.0471H150.351C150.952 16.0471 151.43 16.495 151.43 17.0446V17.6961H148.473C147.008 17.6961 145.812 18.8463 145.812 20.2562V20.6073C145.812 22.0273 147.008 23.1827 148.473 23.1827H152.224C152.677 23.1827 153.034 22.8315 153.034 22.3938V17.0446C153.034 15.6348 151.827 14.4846 150.346 14.4846L150.351 14.4795ZM147.415 20.2562C147.415 19.7065 147.898 19.2586 148.478 19.2586H151.436V21.6151H148.478C147.898 21.6151 147.415 21.1621 147.415 20.6023V20.2511V20.2562Z" fill="#B0B8C1"/>
<path d="M167.696 12.1029C167.63 12.0724 167.559 12.0571 167.457 12.0571H161.227C160.795 12.0571 160.438 12.4134 160.438 12.846V22.3839C160.438 22.8063 160.774 23.1422 161.207 23.1575H167.488C167.798 23.1575 168.042 22.9132 168.042 22.5976V22.1498C168.042 21.9258 167.91 21.7222 167.701 21.6306C167.635 21.6052 167.564 21.5899 167.488 21.5899H162.042V18.1748H166.368C166.683 18.1748 166.923 17.9254 166.923 17.6149V17.1671C166.923 16.938 166.79 16.7344 166.587 16.6479C166.515 16.6225 166.439 16.6021 166.363 16.6021H162.037V13.6247H167.482C167.793 13.6247 168.037 13.3804 168.037 13.07V12.6221C168.037 12.393 167.905 12.1895 167.696 12.1029Z" fill="#B0B8C1"/>
<path d="M196.386 21.6358C196.315 21.6103 196.244 21.5951 196.167 21.5951H194.773C194.188 21.5951 193.714 21.1523 193.714 20.5975V16.0372H196.02C196.33 16.0372 196.57 15.7929 196.57 15.4774V15.0295C196.57 14.8005 196.437 14.5969 196.234 14.5104C196.167 14.4849 196.091 14.4646 196.02 14.4646H193.714V13.4619C193.714 13.1565 193.45 12.897 193.134 12.897H192.676C192.366 12.897 192.106 13.1565 192.106 13.4619V20.5924C192.106 22.0073 193.302 23.1576 194.773 23.1576H196.167C196.473 23.1576 196.717 22.9082 196.717 22.5926V22.1498C196.717 21.9208 196.585 21.7172 196.386 21.6256V21.6358Z" fill="#B0B8C1"/>
<path d="M223.987 12.0571H223.529C223.295 12.0571 223.081 12.1895 222.995 12.3981C222.964 12.4643 222.954 12.5406 222.954 12.6221V14.0217C222.954 14.3322 223.203 14.5816 223.529 14.5816H223.982C224.221 14.5816 224.425 14.4492 224.517 14.2456C224.547 14.1744 224.562 14.098 224.562 14.0268V12.6272C224.562 12.3116 224.308 12.0673 223.982 12.0673L223.987 12.0571Z" fill="#B0B8C1"/>
<path d="M223.987 15.5996H223.529C223.295 15.5996 223.081 15.7319 222.995 15.9406C222.964 16.0119 222.954 16.0831 222.954 16.1646V22.6029C222.954 22.9184 223.203 23.1627 223.529 23.1627H223.982C224.216 23.1627 224.425 23.0355 224.517 22.8268C224.547 22.7556 224.562 22.6843 224.562 22.6029V16.1595C224.562 15.8439 224.308 15.5996 223.982 15.5996H223.987Z" fill="#B0B8C1"/>
<path d="M239.739 18.0473H237.933C237.673 18.0473 237.408 17.9455 237.185 17.7623C236.976 17.5841 236.849 17.3449 236.844 17.1006C236.833 16.8207 236.94 16.5611 237.134 16.3575C237.327 16.1591 237.602 16.0471 237.902 16.0471H241.139C241.455 16.0471 241.689 15.8028 241.689 15.4872V15.0393C241.689 14.8154 241.556 14.6118 241.358 14.5202C241.287 14.4948 241.215 14.4795 241.139 14.4795H237.968C237.235 14.4795 236.528 14.7594 235.999 15.2582C235.485 15.7722 235.215 16.4034 235.23 17.0904C235.256 17.7775 235.535 18.4086 236.039 18.8769C236.558 19.3553 237.215 19.6149 237.897 19.6149H239.76C240.03 19.6149 240.299 19.7116 240.508 19.8846C240.717 20.0678 240.839 20.302 240.849 20.5514C240.864 20.8313 240.757 21.0909 240.554 21.2944C240.36 21.4929 240.075 21.6049 239.77 21.6049H236.126C235.821 21.6049 235.576 21.8492 235.576 22.1597V22.6075C235.576 22.8315 235.703 23.0351 235.907 23.1216C235.983 23.1521 236.05 23.1623 236.126 23.1623H239.77C240.472 23.1623 241.139 22.9078 241.653 22.4345C242.152 21.9612 242.437 21.325 242.452 20.6582C242.473 19.9661 242.208 19.34 241.679 18.8209C241.159 18.3323 240.452 18.0473 239.724 18.0473H239.739Z" fill="#B0B8C1"/>
<path opacity="0.9" d="M90.6199 12.1743H100.066V37.8156H90.6199V12.1743ZM80.4459 17.6253V37.8156H71.0658V17.6253H62.5865V12.1743H88.9353V17.6253H80.4459ZM46.3915 17.3097H38.4568V22.4349H53.5169C52.5601 23.1525 52.0002 24.0381 52.0002 25C52.0002 25.962 52.5601 26.8425 53.5169 27.555H38.4568V32.6955H46.3915C45.4245 33.4131 44.9461 34.2936 44.9461 35.2555C44.9461 36.2175 45.4245 37.1031 46.3915 37.8156H29.0818V12.1743H46.3915C45.4245 12.897 44.9461 13.7775 44.9461 14.7395C44.9461 15.7014 45.4245 16.5819 46.3915 17.3097ZM16.4241 12.1743H27.4023L18.8263 25L27.4023 37.8156H16.4241L9.45134 25.7177V37.8156H0V12.1743H9.45134V24.2773L16.4241 12.1743Z" fill="#6B7684"/>
<path d="M45.9896 50C50.5549 50 54.2449 47.9896 54.2449 45.511C54.2449 43.0324 50.5498 41.0169 45.9896 41.0169C41.4293 41.0169 37.8208 43.0222 37.8208 45.511C37.8208 47.9998 41.5006 50 45.9896 50ZM53.115 39.7343C57.6091 39.7343 61.2939 37.729 61.2939 35.2504C61.2939 32.7718 57.6142 30.7563 53.115 30.7563C48.6158 30.7563 44.9462 32.7616 44.9462 35.2504C44.9462 37.7392 48.626 39.7343 53.115 39.7343ZM45.9896 8.96783C50.5549 8.96783 54.2449 6.96763 54.2449 4.48392C54.2449 2.0002 50.5549 0 45.9896 0C41.4242 0 37.8208 1.99511 37.8208 4.48392C37.8208 6.97272 41.5006 8.96783 45.9896 8.96783ZM53.115 19.2233C57.6091 19.2233 61.2939 17.2231 61.2939 14.7343C61.2939 12.2455 57.6142 10.2504 53.115 10.2504C48.6158 10.2504 44.9462 12.2557 44.9462 14.7343C44.9462 17.2129 48.626 19.2233 53.115 19.2233ZM60.2607 29.4788C64.7447 29.4788 68.4244 27.4786 68.4244 24.9949C68.4244 22.5112 64.7447 20.5059 60.2607 20.5059C55.7768 20.5059 52.0004 22.5112 52.0004 24.9949C52.0004 27.4786 55.6852 29.4788 60.2607 29.4788Z" fill="#B0B8C1"/>
</g>
<defs>
<clipPath id="clip0_2_995">
<rect width="262.622" height="50" fill="white"/>
</clipPath>
</defs>
</svg>
