<svg width="263" height="50" viewBox="0 0 263 50" fill="none" xmlns="http://www.w3.org/2000/svg">
<g clip-path="url(#clip0_1_451)">
<path d="M166.531 26.7256H166.073C165.834 26.7256 165.63 26.863 165.533 27.0717C165.508 27.1378 165.498 27.2193 165.498 27.2956V37.2814C165.498 37.5918 165.747 37.8412 166.073 37.8412H166.531C166.765 37.8412 166.969 37.7089 167.06 37.5053C167.091 37.4341 167.111 37.3526 167.111 37.2865V27.3007C167.111 26.9852 166.857 26.7307 166.531 26.7307V26.7256Z" fill="#005F9E"/>
<path d="M202.575 26.7256H202.107C201.883 26.7256 201.68 26.863 201.588 27.0717C201.557 27.1429 201.542 27.2193 201.542 27.2956V37.2814C201.542 37.5918 201.792 37.8412 202.107 37.8412H202.575C202.804 37.8412 203.008 37.7089 203.105 37.5053C203.135 37.4341 203.145 37.3628 203.145 37.2865V27.3007C203.145 26.9852 202.891 26.7307 202.575 26.7307V26.7256Z" fill="#005F9E"/>
<path d="M124.089 29.1484H122.216C120.745 29.1484 119.549 30.2987 119.549 31.7136V35.2814C119.549 36.6963 120.745 37.8516 122.216 37.8516H124.089C124.74 37.8516 125.361 37.6277 125.835 37.2256C126.196 36.9304 126.466 36.5589 126.624 36.1517C126.685 35.9786 126.664 35.7903 126.563 35.6427C126.456 35.485 126.283 35.3984 126.084 35.3984H125.58C125.341 35.3984 125.132 35.5257 125.076 35.7038C124.888 36.055 124.506 36.2891 124.089 36.2891H122.216C121.636 36.2891 121.152 35.8361 121.152 35.2814V34.2838H125.962C126.415 34.2838 126.776 33.9377 126.776 33.4949V31.7136C126.776 30.2987 125.57 29.1484 124.089 29.1484ZM121.152 31.7136C121.152 31.1639 121.636 30.716 122.216 30.716H124.089C124.69 30.716 125.168 31.1588 125.168 31.7136V32.7264H121.152V31.7136Z" fill="#005F9E"/>
<path d="M131.362 30.7158H133.235C133.647 30.7158 134.034 30.9296 134.197 31.24C134.273 31.464 134.487 31.6116 134.731 31.6116H135.225C135.418 31.6116 135.602 31.5149 135.703 31.3571C135.805 31.2095 135.826 31.0161 135.764 30.8634C135.607 30.441 135.337 30.0644 134.981 29.7742C134.512 29.3773 133.886 29.1533 133.235 29.1533H131.362C129.891 29.1533 128.69 30.3036 128.69 31.7185V35.2863C128.69 36.7012 129.891 37.8565 131.362 37.8565H133.235C133.886 37.8565 134.497 37.6326 134.981 37.2305C135.342 36.9353 135.607 36.5637 135.764 36.1566C135.831 35.9835 135.81 35.7952 135.708 35.6476C135.602 35.4898 135.423 35.4033 135.23 35.4033H134.721C134.487 35.4033 134.273 35.5357 134.222 35.7087C134.034 36.0599 133.642 36.294 133.24 36.294H131.367C130.782 36.294 130.308 35.841 130.308 35.2863V31.7185C130.308 31.1688 130.782 30.7209 131.367 30.7209L131.362 30.7158Z" fill="#005F9E"/>
<path d="M142.126 29.1482H139.185V27.2956C139.185 26.9801 138.93 26.7256 138.61 26.7256H138.152C137.923 26.7256 137.714 26.863 137.622 27.0717C137.592 27.1429 137.576 27.2193 137.576 27.2905V37.2763C137.576 37.5867 137.831 37.8361 138.152 37.8361H138.61C138.844 37.8361 139.047 37.7038 139.139 37.5002C139.169 37.429 139.185 37.3577 139.185 37.2814V30.7209H142.126C142.722 30.7209 143.2 31.1637 143.2 31.7185V37.3017C143.2 37.6173 143.45 37.8616 143.77 37.8616H144.234C144.554 37.8616 144.809 37.6173 144.809 37.3017V31.7185C144.809 30.3036 143.608 29.1533 142.126 29.1533V29.1482Z" fill="#005F9E"/>
<path d="M151.451 29.1387H147.476C147.155 29.1387 146.906 29.3779 146.906 29.6985V37.2769C146.906 37.5874 147.155 37.8368 147.476 37.8368H147.939C148.264 37.8368 148.509 37.5925 148.509 37.2769V30.6961H151.451C152.056 30.6961 152.529 31.1389 152.529 31.7089V37.2769C152.529 37.5874 152.779 37.8368 153.094 37.8368H153.558C153.873 37.8368 154.128 37.5925 154.128 37.2769V31.7089C154.128 30.2889 152.926 29.1387 151.445 29.1387H151.451Z" fill="#005F9E"/>
<path d="M160.637 29.1484H158.759C157.293 29.1484 156.092 30.2987 156.092 31.7136V35.2814C156.092 36.6912 157.293 37.8363 158.759 37.8363H160.637C162.113 37.8363 163.319 36.6912 163.319 35.2814V31.7136C163.319 30.2987 162.113 29.1484 160.637 29.1484ZM157.701 31.7136C157.701 31.1639 158.174 30.716 158.759 30.716H160.637C161.228 30.716 161.711 31.1588 161.711 31.7136V35.2814C161.711 35.826 161.223 36.2738 160.637 36.2738H158.759C158.174 36.2738 157.701 35.826 157.701 35.2814V31.7136Z" fill="#005F9E"/>
<path d="M173.804 29.1484H171.926C170.46 29.1484 169.259 30.2987 169.259 31.7136V35.2814C169.259 36.6912 170.46 37.8363 171.926 37.8363H173.804C175.28 37.8363 176.481 36.6912 176.481 35.2814V31.7136C176.481 30.2987 175.28 29.1484 173.804 29.1484ZM170.872 31.7136C170.872 31.1639 171.341 30.716 171.926 30.716H173.804C174.394 30.716 174.878 31.1588 174.878 31.7136V35.2814C174.878 35.826 174.394 36.2738 173.804 36.2738H171.926C171.346 36.2738 170.872 35.826 170.872 35.2814V31.7136Z" fill="#005F9E"/>
<path d="M194.386 29.1486H194.06C193.73 29.1486 193.434 29.3471 193.302 29.6474L191.027 35.5615L188.742 29.6322C188.62 29.342 188.319 29.1436 187.994 29.1436H187.668C187.48 29.1436 187.301 29.2352 187.195 29.398C187.088 29.5456 187.067 29.7289 187.134 29.907L190.167 37.7806L189.51 39.4856C189.444 39.6637 189.47 39.8571 189.577 40.0098C189.678 40.1625 189.851 40.2541 190.04 40.2541H190.376C190.706 40.2541 191.002 40.0556 191.139 39.7451L194.931 29.9019C194.997 29.7289 194.977 29.5456 194.865 29.3929C194.768 29.2403 194.59 29.1436 194.391 29.1436L194.386 29.1486Z" fill="#005F9E"/>
<path d="M210.027 29.1387H206.067C205.746 29.1387 205.492 29.3779 205.492 29.6985V37.2769C205.492 37.5874 205.746 37.8368 206.067 37.8368H206.525C206.846 37.8368 207.09 37.5925 207.09 37.2769V30.6961H210.027C210.632 30.6961 211.106 31.1389 211.106 31.7089V37.2769C211.106 37.5874 211.355 37.8368 211.676 37.8368H212.144C212.459 37.8368 212.714 37.5925 212.714 37.2769V31.7089C212.714 30.2889 211.508 29.1387 210.027 29.1387Z" fill="#005F9E"/>
<path d="M246.834 29.1389H246.371C246.051 29.1389 245.796 29.3781 245.796 29.6987V36.2694H242.87C242.264 36.2694 241.785 35.8266 241.785 35.2616V29.6987C241.785 29.3832 241.541 29.1389 241.221 29.1389H240.762C240.442 29.1389 240.187 29.3781 240.187 29.6987V35.2616C240.187 36.6816 241.394 37.8319 242.87 37.8319H246.839C247.155 37.8319 247.415 37.5876 247.415 37.272V29.6936C247.415 29.3781 247.155 29.1338 246.839 29.1338L246.834 29.1389Z" fill="#005F9E"/>
<path d="M261.808 34.2789C262.261 34.2789 262.622 33.9328 262.622 33.4901V31.7087C262.622 30.2938 261.416 29.1436 259.935 29.1436H258.067C256.601 29.1436 255.395 30.2938 255.395 31.7087V35.2765C255.395 36.6914 256.601 37.8467 258.067 37.8467H259.935C260.591 37.8467 261.207 37.6228 261.681 37.2207C262.042 36.9255 262.307 36.5591 262.47 36.1468C262.531 35.9738 262.51 35.7855 262.408 35.6379C262.302 35.4801 262.123 35.3936 261.93 35.3936H261.426C261.187 35.3936 260.973 35.5208 260.922 35.6989C260.734 36.0501 260.347 36.2842 259.935 36.2842H258.067C257.482 36.2842 257.003 35.8313 257.003 35.2765V34.2789H261.808ZM258.067 30.7111H259.935C260.53 30.7111 261.014 31.1539 261.014 31.7087V32.7215H256.998V31.7087C256.998 31.159 257.477 30.7111 258.062 30.7111H258.067Z" fill="#005F9E"/>
<path d="M227.642 36.3097C227.575 36.2842 227.504 36.2639 227.428 36.2639H226.043C225.458 36.2639 224.98 35.8211 224.98 35.2765V30.7162H227.29C227.596 30.7162 227.835 30.4719 227.835 30.1513V29.7034C227.835 29.4795 227.708 29.2759 227.504 29.1894C227.438 29.1588 227.362 29.1486 227.285 29.1486H224.98V28.1409C224.98 27.8406 224.72 27.5811 224.41 27.5811H223.946C223.636 27.5811 223.376 27.8406 223.376 28.1409V35.2816C223.376 36.6914 224.578 37.8416 226.048 37.8416H227.443C227.748 37.8416 227.988 37.5973 227.988 37.2818V36.839C227.988 36.6049 227.86 36.4064 227.652 36.3199L227.642 36.3097Z" fill="#005F9E"/>
<path d="M238.182 36.3097C238.116 36.2842 238.04 36.2639 237.963 36.2639H236.569C235.983 36.2639 235.51 35.8211 235.51 35.2765V30.7162H237.816C238.126 30.7162 238.36 30.4719 238.36 30.1513V29.7034C238.36 29.4795 238.233 29.2759 238.029 29.1894C237.963 29.1588 237.887 29.1486 237.81 29.1486H235.505V28.1409C235.505 27.8406 235.24 27.5811 234.93 27.5811H234.467C234.156 27.5811 233.897 27.8406 233.897 28.1409V35.2816C233.897 36.6914 235.093 37.8416 236.564 37.8416H237.963C238.263 37.8416 238.503 37.5973 238.503 37.2818V36.839C238.503 36.6049 238.375 36.4064 238.177 36.3199L238.182 36.3097Z" fill="#005F9E"/>
<path d="M253.715 36.3097C253.644 36.2842 253.573 36.2639 253.497 36.2639H252.107C251.517 36.2639 251.043 35.8211 251.043 35.2765V30.7162H253.359C253.659 30.7162 253.899 30.4719 253.899 30.1513V29.7034C253.899 29.4795 253.771 29.2759 253.568 29.1894C253.497 29.1588 253.425 29.1486 253.349 29.1486H251.043V28.1409C251.043 27.8406 250.784 27.5811 250.473 27.5811H250.01C249.7 27.5811 249.44 27.8406 249.44 28.1409V35.2816C249.44 36.6914 250.636 37.8416 252.112 37.8416H253.502C253.812 37.8416 254.056 37.5973 254.056 37.2818V36.839C254.056 36.6049 253.924 36.4064 253.721 36.3199L253.715 36.3097Z" fill="#005F9E"/>
<path d="M231.041 26.7256H230.583C230.354 26.7256 230.141 26.863 230.054 27.0717C230.029 27.1429 230.008 27.2193 230.008 27.2956V28.6953C230.008 29.0057 230.258 29.2551 230.578 29.2551H231.041C231.275 29.2551 231.484 29.1228 231.566 28.9192C231.601 28.853 231.616 28.7767 231.616 28.6953V27.2956C231.616 26.9801 231.362 26.7256 231.041 26.7256Z" fill="#005F9E"/>
<path d="M231.041 30.2686H230.583C230.354 30.2686 230.141 30.4009 230.054 30.6096C230.029 30.6757 230.008 30.7521 230.008 30.8284V37.2769C230.008 37.5874 230.258 37.8368 230.578 37.8368H231.041C231.275 37.8368 231.484 37.7044 231.566 37.5008C231.601 37.4296 231.616 37.3532 231.616 37.2769V30.8284C231.616 30.5129 231.362 30.2686 231.041 30.2686Z" fill="#005F9E"/>
<path d="M118.984 26.7765C118.913 26.7459 118.842 26.7256 118.75 26.7256H111.329C111.258 26.7256 111.182 26.7459 111.116 26.7765C110.917 26.863 110.78 27.0615 110.78 27.2956V27.7435C110.78 28.054 111.029 28.3034 111.329 28.3034H114.246V37.2814C114.246 37.5918 114.5 37.8412 114.801 37.8412H115.279C115.589 37.8412 115.854 37.5867 115.854 37.2814V28.3034H118.77C119.086 28.3034 119.32 28.054 119.32 27.7435V27.2956C119.32 27.0666 119.193 26.863 118.984 26.7765Z" fill="#005F9E"/>
<path d="M185.006 29.1484H181.021C179.555 29.1484 178.359 30.2987 178.359 31.7136V34.7419C178.359 36.1568 179.555 37.3121 181.021 37.3121H183.978V37.6837C183.978 38.2333 183.495 38.6812 182.909 38.6914H179.952C179.866 38.6914 179.794 38.7016 179.733 38.727C179.53 38.8135 179.402 39.0222 179.402 39.2462V39.6991C179.402 40.0147 179.642 40.259 179.952 40.259H182.899C184.38 40.259 185.586 39.1037 185.586 37.6887V29.7134C185.586 29.4029 185.327 29.1484 185.006 29.1484ZM179.962 31.7136C179.962 31.1639 180.441 30.716 181.021 30.716H183.978V35.7496H181.021C180.441 35.7496 179.962 35.2966 179.962 34.7419V31.7136Z" fill="#005F9E"/>
<path d="M218.954 32.7213H217.152C216.887 32.7213 216.618 32.6144 216.404 32.4312C216.195 32.2531 216.068 32.0139 216.058 31.7645C216.042 31.4896 216.149 31.225 216.353 31.0265C216.546 30.828 216.826 30.7109 217.121 30.7109H220.358C220.659 30.7109 220.908 30.4717 220.908 30.1562V29.7032C220.908 29.4793 220.771 29.2808 220.572 29.1942C220.506 29.1688 220.43 29.1484 220.363 29.1484H217.182C216.46 29.1484 215.742 29.4335 215.223 29.9322C214.709 30.4412 214.439 31.0774 214.449 31.7645C214.475 32.4465 214.765 33.0827 215.259 33.5458C215.778 34.0243 216.439 34.2838 217.126 34.2838H218.989C219.259 34.2838 219.529 34.3856 219.732 34.5587C219.946 34.7419 220.073 34.9709 220.078 35.2254C220.089 35.5053 219.987 35.7649 219.788 35.9685C219.585 36.167 219.31 36.2789 218.999 36.2789H215.355C215.05 36.2789 214.806 36.5232 214.806 36.8337V37.2816C214.806 37.5106 214.938 37.7142 215.142 37.7956C215.208 37.8262 215.279 37.8414 215.355 37.8414H218.999C219.702 37.8414 220.369 37.587 220.883 37.1136C221.376 36.6352 221.671 36.0041 221.682 35.3425C221.697 34.6554 221.432 34.0192 220.913 33.5C220.394 33.0114 219.681 32.7315 218.954 32.7315V32.7213Z" fill="#005F9E"/>
<path d="M126.242 14.4795H124.369C122.893 14.4795 121.697 15.6297 121.697 17.0395V20.6073C121.697 22.0222 122.898 23.1674 124.369 23.1674H126.242C127.718 23.1674 128.924 22.0222 128.924 20.6073V17.0395C128.924 15.6297 127.718 14.4795 126.242 14.4795ZM123.3 17.0395C123.3 16.495 123.784 16.042 124.369 16.042H126.242C126.832 16.042 127.321 16.4899 127.321 17.0395V20.6073C127.321 21.157 126.832 21.6049 126.242 21.6049H124.369C123.784 21.6049 123.3 21.157 123.3 20.6073V17.0395Z" fill="#005F9E"/>
<path d="M141.577 14.4795H139.704C138.233 14.4795 137.037 15.6297 137.037 17.0395V20.6073C137.037 22.0273 138.228 23.1827 139.704 23.1827H141.577C142.233 23.1827 142.849 22.9587 143.322 22.5567C143.684 22.2665 143.959 21.8899 144.111 21.4827C144.172 21.3097 144.152 21.1214 144.055 20.9738C143.949 20.8211 143.77 20.7295 143.572 20.7295H143.073C142.834 20.7295 142.625 20.8618 142.564 21.0349C142.376 21.3911 141.989 21.6202 141.582 21.6202H139.709C139.124 21.6202 138.65 21.1672 138.65 20.6073V19.6149H143.46C143.913 19.6149 144.269 19.2688 144.269 18.826V17.0446C144.269 15.6348 143.068 14.4846 141.582 14.4846L141.577 14.4795ZM138.645 17.0395C138.645 16.495 139.113 16.042 139.704 16.042H141.577C142.172 16.042 142.661 16.4899 142.661 17.0395V18.0473H138.645V17.0395Z" fill="#005F9E"/>
<path d="M171.295 12.0576H170.832C170.598 12.0576 170.394 12.1899 170.302 12.3986C170.272 12.4699 170.257 12.5462 170.257 12.6226V22.6032C170.257 22.9188 170.511 23.1631 170.832 23.1631H171.295C171.519 23.1631 171.727 23.0358 171.819 22.8272C171.85 22.7559 171.86 22.6847 171.86 22.6032V12.6175C171.86 12.3019 171.616 12.0576 171.295 12.0576Z" fill="#005F9E"/>
<path d="M178.629 14.4795H176.751C175.27 14.4795 174.079 15.6297 174.079 17.0395V20.6073C174.079 22.0273 175.27 23.1827 176.751 23.1827H178.629C179.275 23.1827 179.896 22.9587 180.37 22.5567C180.726 22.2665 180.996 21.895 181.153 21.4827C181.22 21.3097 181.199 21.1265 181.092 20.9738C180.985 20.8211 180.807 20.7295 180.614 20.7295H180.11C179.871 20.7295 179.662 20.8618 179.601 21.0349C179.418 21.3911 179.031 21.6202 178.624 21.6202H176.746C176.16 21.6202 175.682 21.1672 175.682 20.6073V19.6149H180.492C180.945 19.6149 181.301 19.2688 181.301 18.826V17.0446C181.301 15.6348 180.095 14.4846 178.619 14.4846L178.629 14.4795ZM175.687 17.0395C175.687 16.495 176.166 16.042 176.751 16.042H178.629C179.219 16.042 179.703 16.4899 179.703 17.0395V18.0473H175.692V17.0395H175.687Z" fill="#005F9E"/>
<path d="M185.851 16.042H187.719C188.136 16.042 188.513 16.2558 188.681 16.5713C188.757 16.7902 188.976 16.9378 189.225 16.9378H189.714C189.907 16.9378 190.086 16.8411 190.192 16.6782C190.294 16.5306 190.315 16.3372 190.253 16.1896C190.106 15.7672 189.831 15.3905 189.475 15.1004C189.001 14.6983 188.386 14.4795 187.724 14.4795H185.856C184.38 14.4795 183.179 15.6297 183.179 17.0395V20.6073C183.179 22.0273 184.38 23.1827 185.856 23.1827H187.724C188.375 23.1827 188.996 22.9587 189.47 22.5567C189.826 22.2665 190.101 21.895 190.253 21.4827C190.315 21.3046 190.294 21.1214 190.192 20.9738C190.091 20.8211 189.907 20.7295 189.719 20.7295H189.215C188.976 20.7295 188.762 20.8618 188.706 21.0349C188.523 21.3911 188.141 21.6202 187.724 21.6202H185.856C185.266 21.6202 184.792 21.1672 184.792 20.6073V17.0395C184.792 16.495 185.266 16.042 185.856 16.042H185.851Z" fill="#005F9E"/>
<path d="M209.009 14.4795H207.136C205.665 14.4795 204.464 15.6297 204.464 17.0395V20.6073C204.464 22.0222 205.665 23.1674 207.136 23.1674H209.009C210.495 23.1674 211.691 22.0222 211.691 20.6073V17.0395C211.691 15.6297 210.49 14.4795 209.009 14.4795ZM206.077 17.0395C206.077 16.495 206.55 16.042 207.136 16.042H209.009C209.604 16.042 210.088 16.4899 210.088 17.0395V20.6073C210.088 21.157 209.604 21.6049 209.009 21.6049H207.136C206.55 21.6049 206.077 21.157 206.077 20.6073V17.0395Z" fill="#005F9E"/>
<path d="M218.088 14.4648H214.124C213.803 14.4648 213.554 14.7142 213.554 15.0247V22.598C213.554 22.9135 213.803 23.1578 214.124 23.1578H214.587C214.907 23.1578 215.157 22.9135 215.157 22.598V16.0273H218.088C218.694 16.0273 219.167 16.465 219.167 17.0351V22.598C219.167 22.9135 219.422 23.1578 219.743 23.1578H220.206C220.521 23.1578 220.771 22.9135 220.771 22.598V17.0351C220.771 15.6151 219.569 14.4648 218.088 14.4648Z" fill="#005F9E"/>
<path d="M229.316 16.0422H231.189C231.606 16.0422 231.983 16.256 232.156 16.5664C232.232 16.7853 232.446 16.9329 232.69 16.9329H233.179C233.377 16.9329 233.556 16.8362 233.662 16.6784C233.764 16.5308 233.785 16.3374 233.724 16.1847C233.571 15.7623 233.301 15.3856 232.935 15.0955C232.477 14.6935 231.851 14.4746 231.189 14.4746H229.316C227.845 14.4746 226.644 15.6249 226.644 17.0347V20.6025C226.644 22.0225 227.845 23.1778 229.316 23.1778H231.189C231.835 23.1778 232.461 22.9538 232.935 22.5518C233.296 22.2617 233.561 21.8901 233.724 21.4728C233.785 21.2997 233.764 21.1165 233.662 20.9689C233.556 20.8162 233.377 20.7246 233.179 20.7246H232.675C232.436 20.7246 232.227 20.8569 232.166 21.03C231.983 21.3863 231.601 21.6153 231.184 21.6153H229.311C228.726 21.6153 228.252 21.1623 228.252 20.6025V17.0347C228.252 16.4901 228.731 16.0371 229.311 16.0371L229.316 16.0422Z" fill="#005F9E"/>
<path d="M116.897 17.3915L120.18 12.9534C120.313 12.7803 120.333 12.5666 120.241 12.3732C120.145 12.1798 119.951 12.0576 119.722 12.0576H119.274C119.025 12.0576 118.776 12.1798 118.623 12.3783L115.574 16.5059C115.488 16.6281 115.33 16.6993 115.162 16.6993H114.007V12.6175C114.007 12.3019 113.752 12.0576 113.431 12.0576H112.978C112.739 12.0576 112.531 12.1899 112.444 12.3986C112.414 12.4699 112.393 12.5462 112.393 12.6226V22.6032C112.393 22.9188 112.653 23.1631 112.978 23.1631H113.431C113.666 23.1631 113.874 23.0358 113.961 22.8272C113.996 22.7559 114.007 22.6847 114.007 22.6032V18.2669H115.294C115.462 18.2669 115.625 18.3432 115.717 18.4705L118.974 22.8526C119.132 23.0511 119.361 23.1631 119.61 23.1631H120.068C120.282 23.1631 120.475 23.0562 120.567 22.873C120.664 22.6847 120.654 22.4658 120.526 22.2775L116.903 17.3915H116.897Z" fill="#005F9E"/>
<path d="M135.469 14.5204C135.398 14.495 135.327 14.4746 135.235 14.4746H133.622C132.146 14.4746 130.955 15.6249 130.955 17.0347V22.6078C130.955 22.9131 131.209 23.1523 131.525 23.1523H131.978C132.298 23.1523 132.553 22.908 132.553 22.6078V17.0347C132.553 16.5104 132.991 16.0778 133.535 16.0422H135.245C135.556 16.0422 135.8 15.7979 135.8 15.4823V15.0345C135.8 14.8054 135.663 14.6018 135.459 14.5153L135.469 14.5204Z" fill="#005F9E"/>
<path d="M202.972 14.5204C202.896 14.495 202.83 14.4746 202.733 14.4746H201.12C199.654 14.4746 198.453 15.6249 198.453 17.0347V22.6078C198.453 22.9131 198.712 23.1523 199.033 23.1523H199.486C199.802 23.1523 200.061 22.908 200.061 22.6078V17.0347C200.061 16.5104 200.504 16.0778 201.049 16.0422H202.754C203.064 16.0422 203.308 15.7979 203.308 15.4823V15.0345C203.308 14.8054 203.176 14.6018 202.972 14.5153V14.5204Z" fill="#005F9E"/>
<path d="M150.351 14.4795H147.303C147.231 14.4795 147.16 14.4948 147.089 14.5202C146.885 14.6067 146.758 14.8103 146.758 15.0393V15.4872C146.758 15.8028 146.992 16.0471 147.303 16.0471H150.351C150.952 16.0471 151.43 16.495 151.43 17.0446V17.6961H148.473C147.007 17.6961 145.811 18.8463 145.811 20.2562V20.6073C145.811 22.0273 147.007 23.1827 148.473 23.1827H152.224C152.677 23.1827 153.033 22.8315 153.033 22.3938V17.0446C153.033 15.6348 151.827 14.4846 150.346 14.4846L150.351 14.4795ZM147.415 20.2562C147.415 19.7065 147.898 19.2586 148.478 19.2586H151.435V21.6151H148.478C147.898 21.6151 147.415 21.1621 147.415 20.6023V20.2511V20.2562Z" fill="#005F9E"/>
<path d="M167.696 12.1034C167.63 12.0729 167.559 12.0576 167.457 12.0576H161.228C160.795 12.0576 160.439 12.4139 160.439 12.8465V22.3844C160.439 22.8068 160.775 23.1427 161.207 23.158H167.488C167.798 23.158 168.043 22.9137 168.043 22.5981V22.1502C168.043 21.9263 167.91 21.7227 167.702 21.6311C167.635 21.6057 167.564 21.5904 167.488 21.5904H162.042V18.1753H166.368C166.684 18.1753 166.923 17.9259 166.923 17.6154V17.1676C166.923 16.9385 166.791 16.7349 166.587 16.6484C166.516 16.623 166.439 16.6026 166.363 16.6026H162.037V13.6252H167.483C167.793 13.6252 168.037 13.3809 168.037 13.0704V12.6226C168.037 12.3935 167.905 12.1899 167.696 12.1034Z" fill="#005F9E"/>
<path d="M196.386 21.6363C196.315 21.6108 196.244 21.5955 196.168 21.5955H194.773C194.188 21.5955 193.714 21.1528 193.714 20.598V16.0377H196.02C196.33 16.0377 196.57 15.7934 196.57 15.4779V15.03C196.57 14.801 196.437 14.5974 196.234 14.5109C196.168 14.4854 196.091 14.4651 196.02 14.4651H193.714V13.4624C193.714 13.157 193.45 12.8975 193.134 12.8975H192.676C192.366 12.8975 192.106 13.157 192.106 13.4624V20.5929C192.106 22.0078 193.302 23.158 194.773 23.158H196.168C196.473 23.158 196.717 22.9087 196.717 22.5931V22.1503C196.717 21.9213 196.585 21.7177 196.386 21.6261V21.6363Z" fill="#005F9E"/>
<path d="M223.987 12.0576H223.529C223.295 12.0576 223.081 12.1899 222.995 12.3986C222.964 12.4648 222.954 12.5411 222.954 12.6226V14.0222C222.954 14.3327 223.203 14.582 223.529 14.582H223.982C224.221 14.582 224.425 14.4497 224.516 14.2461C224.547 14.1749 224.562 14.0985 224.562 14.0273V12.6276C224.562 12.3121 224.308 12.0678 223.982 12.0678L223.987 12.0576Z" fill="#005F9E"/>
<path d="M223.987 15.5996H223.529C223.295 15.5996 223.081 15.7319 222.995 15.9406C222.964 16.0119 222.954 16.0831 222.954 16.1646V22.6029C222.954 22.9184 223.203 23.1627 223.529 23.1627H223.982C224.216 23.1627 224.425 23.0355 224.516 22.8268C224.547 22.7556 224.562 22.6843 224.562 22.6029V16.1595C224.562 15.8439 224.308 15.5996 223.982 15.5996H223.987Z" fill="#005F9E"/>
<path d="M239.739 18.0473H237.933C237.673 18.0473 237.408 17.9455 237.185 17.7623C236.976 17.5841 236.849 17.3449 236.844 17.1006C236.833 16.8207 236.94 16.5611 237.134 16.3575C237.327 16.1591 237.602 16.0471 237.902 16.0471H241.139C241.455 16.0471 241.689 15.8028 241.689 15.4872V15.0393C241.689 14.8154 241.556 14.6118 241.358 14.5202C241.287 14.4948 241.215 14.4795 241.139 14.4795H237.968C237.235 14.4795 236.528 14.7594 235.999 15.2582C235.485 15.7722 235.215 16.4034 235.23 17.0904C235.256 17.7775 235.535 18.4086 236.039 18.8769C236.558 19.3553 237.215 19.6149 237.897 19.6149H239.76C240.03 19.6149 240.299 19.7116 240.508 19.8846C240.717 20.0678 240.839 20.302 240.849 20.5514C240.864 20.8313 240.757 21.0909 240.554 21.2944C240.36 21.4929 240.075 21.6049 239.77 21.6049H236.126C235.821 21.6049 235.576 21.8492 235.576 22.1597V22.6075C235.576 22.8315 235.703 23.0351 235.907 23.1216C235.983 23.1521 236.05 23.1623 236.126 23.1623H239.77C240.472 23.1623 241.139 22.9078 241.653 22.4345C242.152 21.9612 242.437 21.325 242.452 20.6582C242.473 19.9661 242.208 19.34 241.679 18.8209C241.159 18.3323 240.452 18.0473 239.724 18.0473H239.739Z" fill="#005F9E"/>
<path d="M90.6199 12.1738H100.066V37.8151H90.6199V12.1738ZM80.4459 17.6248V37.8151H71.0658V17.6248H62.5865V12.1738H88.9353V17.6248H80.4459ZM46.3915 17.3092H38.4568V22.4344H53.5169C52.5601 23.152 52.0002 24.0376 52.0002 24.9996C52.0002 25.9615 52.5601 26.842 53.5169 27.5545H38.4568V32.695H46.3915C45.4245 33.4126 44.9461 34.2931 44.9461 35.2551C44.9461 36.217 45.4245 37.1026 46.3915 37.8151H29.0818V12.1738H46.3915C45.4245 12.8965 44.9461 13.777 44.9461 14.739C44.9461 15.7009 45.4245 16.5814 46.3915 17.3092ZM16.4241 12.1738H27.4023L18.8263 24.9996L27.4023 37.8151H16.4241L9.45134 25.7172V37.8151H0V12.1738H9.45134V24.2768L16.4241 12.1738Z" fill="#005F9E"/>
<path d="M45.9895 50C50.5548 50 54.2447 47.9896 54.2447 45.511C54.2447 43.0324 50.5497 41.0169 45.9895 41.0169C41.4292 41.0169 37.8207 43.0222 37.8207 45.511C37.8207 47.9998 41.5004 50 45.9895 50ZM53.1149 39.7343C57.609 39.7343 61.2938 37.729 61.2938 35.2504C61.2938 32.7718 57.614 30.7563 53.1149 30.7563C48.6157 30.7563 44.9461 32.7616 44.9461 35.2504C44.9461 37.7392 48.6259 39.7343 53.1149 39.7343ZM45.9895 8.96783C50.5548 8.96783 54.2447 6.96763 54.2447 4.48392C54.2447 2.0002 50.5548 0 45.9895 0C41.4241 0 37.8207 1.99511 37.8207 4.48392C37.8207 6.97272 41.5004 8.96783 45.9895 8.96783ZM53.1149 19.2233C57.609 19.2233 61.2938 17.2231 61.2938 14.7343C61.2938 12.2455 57.614 10.2504 53.1149 10.2504C48.6157 10.2504 44.9461 12.2557 44.9461 14.7343C44.9461 17.2129 48.6259 19.2233 53.1149 19.2233ZM60.2606 29.4788C64.7445 29.4788 68.4243 27.4786 68.4243 24.9949C68.4243 22.5112 64.7445 20.5059 60.2606 20.5059C55.7767 20.5059 52.0002 22.5112 52.0002 24.9949C52.0002 27.4786 55.6851 29.4788 60.2606 29.4788Z" fill="#68CEF2"/>
</g>
<defs>
<clipPath id="clip0_1_451">
<rect width="262.622" height="50" fill="white"/>
</clipPath>
</defs>
</svg>
