<svg width="15" height="14" viewBox="0 0 15 14" fill="none" xmlns="http://www.w3.org/2000/svg">
<mask id="mask0_3182_91680" style="mask-type:alpha" maskUnits="userSpaceOnUse" x="0" y="0" width="15" height="15">
<path d="M7.52481 6.47721V6.97721H8.02481H12.604C12.6178 6.97721 12.629 6.9884 12.629 7.00221C12.629 7.01602 12.6178 7.02721 12.604 7.02721H8.02481H7.52481V7.52721V12.1064C7.52481 12.1202 7.51362 12.1314 7.49981 12.1314C7.48601 12.1314 7.47482 12.1202 7.47482 12.1064V7.52721V7.02721H6.97482H2.39566C2.38186 7.02721 2.37067 7.01602 2.37067 7.00221C2.37067 6.9884 2.38186 6.97721 2.39566 6.97721H6.97482H7.47482V6.47721V1.89805C7.47482 1.88424 7.48601 1.87305 7.49981 1.87305C7.51362 1.87305 7.52481 1.88424 7.52481 1.89805V6.47721Z" fill="#171719" stroke="#171719"/>
</mask>
<g mask="url(#mask0_3182_91680)">
<rect x="0.5" y="0.00195312" width="13.9999" height="14" fill="white"/>
</g>
</svg>
