<svg width="24" height="24" viewBox="0 0 24 24" fill="none" xmlns="http://www.w3.org/2000/svg">
<mask id="mask0_2659_103757" style="mask-type:alpha" maskUnits="userSpaceOnUse" x="0" y="0" width="24" height="24">
<path d="M12.3996 11.1001V11.6001H12.8996H20.7495C20.9705 11.6001 21.1495 11.7792 21.1495 12.0001C21.1495 12.221 20.9705 12.4001 20.7495 12.4001H12.8996H12.3996V12.9001V20.7501C12.3996 20.971 12.2205 21.1501 11.9996 21.1501C11.7787 21.1501 11.5996 20.971 11.5996 20.7501V12.9001V12.4001H11.0996H3.24961C3.0287 12.4001 2.84961 12.221 2.84961 12.0001C2.84961 11.7792 3.0287 11.6001 3.24961 11.6001H11.0996H11.5996V11.1001V3.2501C11.5996 3.02918 11.7787 2.8501 11.9996 2.8501C12.2205 2.8501 12.3996 3.02918 12.3996 3.2501V11.1001Z" fill="#171719" stroke="#171719"/>
</mask>
<g mask="url(#mask0_2659_103757)">
<rect width="24" height="24" fill="black"/>
</g>
</svg>
