<svg width="20" height="21" viewBox="0 0 20 21" fill="none" xmlns="http://www.w3.org/2000/svg">
<mask id="mask0_3117_99241" style="mask-type:alpha" maskUnits="userSpaceOnUse" x="0" y="0" width="20" height="21">
<path fill-rule="evenodd" clip-rule="evenodd" d="M1.75 10.666C1.75 6.10967 5.44364 2.41602 9.99997 2.41602C14.5563 2.41602 18.2499 6.10967 18.2499 10.666C18.2499 15.2224 14.5563 18.916 9.99997 18.916C5.44364 18.916 1.75 15.2224 1.75 10.666ZM7.08331 6.68871L6.02265 7.74937L8.93931 10.666L6.02265 13.5827L7.08331 14.6434L9.99997 11.7267L12.9166 14.6434L13.9773 13.5827L11.0606 10.666L13.9773 7.74937L12.9166 6.68871L9.99997 9.60538L7.08331 6.68871Z" fill="black"/>
</mask>
<g mask="url(#mask0_3117_99241)">
<rect y="0.666016" width="19.9999" height="20" fill="#70737C"/>
</g>
</svg>
