<svg width="33" height="32" viewBox="0 0 33 32" fill="none" xmlns="http://www.w3.org/2000/svg">
<path d="M22.1719 23.082C22.4062 23.3242 22.7812 23.3398 23.0234 23.082C23.2812 22.8242 23.2578 22.4727 23.0234 22.2305L9.96094 9.17578C9.72656 8.94141 9.34375 8.94141 9.10156 9.17578C8.875 9.40234 8.875 9.80078 9.10156 10.0273L22.1719 23.082ZM22.9062 20.8242C25.1875 19.3164 26.6797 17.2461 26.6797 16.3164C26.6797 14.7305 22.3438 9.67578 16.0938 9.67578C14.7656 9.67578 13.5156 9.90234 12.3828 10.2773L14.4141 12.3086C14.9297 12.0898 15.4922 11.9648 16.0938 11.9648C18.5078 11.9648 20.4609 13.8789 20.4609 16.3164C20.4609 16.9102 20.3281 17.4805 20.0938 17.9805L22.9062 20.8242ZM16.0938 22.957C17.5391 22.957 18.8828 22.6914 20.0625 22.2539L18.0156 20.207C17.4375 20.5039 16.7812 20.668 16.0938 20.668C13.6562 20.668 11.7266 18.6914 11.7188 16.3164C11.7188 15.6133 11.8828 14.9492 12.1719 14.3633L9.5 11.6758C7.03906 13.2148 5.5 15.3789 5.5 16.3164C5.5 17.8945 9.91406 22.957 16.0938 22.957ZM18.5781 16.1523C18.5781 14.7852 17.4766 13.6758 16.0938 13.6758C15.9922 13.6758 15.8906 13.6836 15.7969 13.6914L18.5625 16.457C18.5703 16.3633 18.5781 16.2539 18.5781 16.1523ZM13.6016 16.1367C13.6016 17.5117 14.7344 18.6211 16.1016 18.6211C16.2109 18.6211 16.3125 18.6133 16.4219 18.6055L13.6172 15.8008C13.6094 15.9102 13.6016 16.0273 13.6016 16.1367Z" fill="#B0B8C1"/>
</svg>
